<svg width="132" height="18" viewBox="0 0 132 18" fill="none" xmlns="http://www.w3.org/2000/svg">
<path d="M17.108 7.22054C17.108 5.98255 17.0982 4.73058 17.0772 3.39048C17.0548 2.37771 16.5708 1.59575 15.5958 1.00403C14.6726 0.457083 13.4304 0.178711 11.9098 0.178711H0V17.4531H2.97676V10.7442H12.0875C13.6668 10.7442 14.9188 10.4197 15.8098 9.78044C16.6841 9.15235 17.108 8.31584 17.108 7.22054ZM14.1298 6.37983C14.1298 7.43876 13.5619 8.70053 10.8607 8.70053H2.97676V2.1483H10.953C13.5787 2.1483 14.1298 3.29396 14.1298 4.25637V6.37983Z" fill="#C30011"/>
<path d="M32.763 13.0241L34.9158 17.4529H38.0758L30.2688 1.47239C29.7792 0.494587 28.9357 0.0175781 27.6908 0.0175781C26.4458 0.0175781 25.6023 0.494587 25.1113 1.47518L17.3057 17.4529H20.4657L22.6185 13.0241H32.763ZM27.4991 2.08368L31.9237 11.1706H23.4788L27.4991 2.08368Z" fill="#C30011"/>
<path d="M52.6583 0.167969H37.4248V2.15854H43.5322V17.4536H46.509V2.15854H52.6583V0.167969Z" fill="#C30011"/>
<path d="M69.1202 17.4529H72.6005L63.2366 10.1201H68.2725C69.7483 10.1201 70.9541 9.79276 71.8549 9.14789C72.7264 8.51421 73.1503 7.70847 73.1503 6.68591V3.55668C73.1503 1.17443 71.4479 0.0175781 67.9452 0.0175781H56.1836V17.4529H59.1604V2.03892H66.9016C69.6042 2.03892 70.1707 3.24054 70.1707 4.24771V6.31941C70.1707 7.28462 69.6629 8.43588 67.2401 8.43588L61.9874 8.47225C60.2668 8.47225 60.0682 9.16188 60.0682 9.67946C60.0682 10.1061 60.1801 10.4069 60.4025 10.5733L69.1202 17.4529Z" fill="#C30011"/>
<path d="M79.6832 0.165039H76.7051V17.4535H79.6832V0.165039Z" fill="#C30011"/>
<path d="M98.5687 13.0241L100.721 17.4529H103.882L96.0745 1.47239C95.5863 0.494587 94.7428 0.0175781 93.4964 0.0175781C92.2514 0.0175781 91.4079 0.494587 90.9169 1.47518L83.1113 17.4529H86.2713L88.4242 13.0241H98.5687ZM93.3034 2.08368L97.7279 11.1706H89.2831L93.3034 2.08368Z" fill="#C30011"/>
<path d="M124.487 0.166464H121.677V15.4783L112.812 1.88286C112.224 0.96381 111.913 0.619692 111.754 0.492396C111.35 0.165065 110.735 0 109.925 0C108.137 0 107.305 0.739993 107.305 2.33049V17.4899H110.122V2.23397L119.061 15.842C119.727 16.8926 119.994 17.1653 120.078 17.2339C120.486 17.5724 121.09 17.7431 121.874 17.7431C122.713 17.7431 123.358 17.522 123.846 17.0674C124.28 16.6771 124.488 16.1959 124.488 15.5916V0.166464H124.487Z" fill="#C30011"/>
<path d="M132 0.164062H129.023V17.4539H132V0.164062Z" fill="#C30011"/>
</svg>
